# xmcd
#
# Track frame offsets:
#	150
#	17013
#	37929
#	56279
#	73770
#	86573
#	100260
#	117339
#	131181
#	146532
#	162199
#	181662
#
# Disc length: 2618
#
# Revision: 1
# Processed by: cddbd v1.5.1PL0 Copyright (c) Steve Scherf et al.
# Submitted via: dBpowerAMP V4.0
# Normalized: r0:TDELIM( - )
#
DISCID=9a0a380c
DTITLE=Various Artist - Big Country Hits
DYEAR=2002
DGENRE=Country
TTITLE0=Little Texas - Kick A Little
TTITLE1=Paul Brandt - That's The Truth
TTITLE2=Randy Travis - Hard Rock Bottom Of Your Heart
TTITLE3=Wilkinsons - 26 Cents
TTITLE4=Trick Pony - Pour Me
TTITLE5=David Ball - Thinkin' Problem
TTITLE6=Travis Tritt - No More Looking Over My Shoulder
TTITLE7=Tracy Lawrence - Time Marches On
TTITLE8=Chad Brock - Yes!
TTITLE9=Kevin Sharp - Nobody Knows
TTITLE10=George Fox - How Do I Get There From Her
TTITLE11=Clay Walker - Say No More
EXTD=
EXTT0=
EXTT1=
EXTT2=
EXTT3=
EXTT4=
EXTT5=
EXTT6=
EXTT7=
EXTT8=
EXTT9=
EXTT10=
EXTT11=
PLAYORDER=
